HIERARCHY
ROOT Hips
{
	OFFSET	0.00	0.00	0.00
	CHANNELS 6 Xposition Yposition Zposition Zrotation Xrotation Yrotation
	JOINT LeftUpLeg
	{
		OFFSET	 0.126116	-0.014019	-0.065224
		CHANNELS 3 Zrotation Xrotation Yrotation
		JOINT LeftLeg
		{
			OFFSET	 0.000000	 0.000000	 0.569914
			CHANNELS 3 Zrotation Xrotation Yrotation
			JOINT LeftFoot
			{
				OFFSET	 0.000000	 0.000000	 0.544423
				CHANNELS 3 Zrotation Xrotation Yrotation
				JOINT LeftToeBase
				{
					OFFSET	 0.000000	 0.000000	 0.207117
					CHANNELS 3 Zrotation Xrotation Yrotation
					End Site
					{
						OFFSET	 0.000000	 0.000000	 0.207117
					}
				}
			}
		}
	}
	JOINT RightUpLeg
	{
		OFFSET	-0.124023	-0.008373	-0.065224
		CHANNELS 3 Zrotation Xrotation Yrotation
		JOINT RightLeg
		{
			OFFSET	 0.000000	 0.000000	 0.570047
			CHANNELS 3 Zrotation Xrotation Yrotation
			JOINT RightFoot
			{
				OFFSET	 0.000000	 0.000000	 0.544354
				CHANNELS 3 Zrotation Xrotation Yrotation
				JOINT RightToeBase
				{
					OFFSET	 0.000000	 0.000000	 0.207540
					CHANNELS 3 Zrotation Xrotation Yrotation
					End Site
					{
						OFFSET	 0.000000	 0.000000	 0.207540
					}
				}
			}
		}
	}
	JOINT Spine
	{
		OFFSET	 0.000184	-0.007763	 0.117403
		CHANNELS 3 Zrotation Xrotation Yrotation
		JOINT Spine1
		{
			OFFSET	 0.000000	 0.000000	 0.137269
			CHANNELS 3 Zrotation Xrotation Yrotation
			JOINT Spine2
			{
				OFFSET	 0.000000	 0.000000	 0.156879
				CHANNELS 3 Zrotation Xrotation Yrotation
				JOINT LeftShoulder
				{
					OFFSET	 0.080501	-0.002496	 0.160144
					CHANNELS 3 Zrotation Xrotation Yrotation
					JOINT LeftArm
					{
						OFFSET	 0.000000	 0.000000	 0.164363
						CHANNELS 3 Zrotation Xrotation Yrotation
						JOINT LeftForeArm
						{
							OFFSET	 0.000000	 0.000000	 0.364576
							CHANNELS 3 Zrotation Xrotation Yrotation
							JOINT LeftHand
							{
								OFFSET	 0.000000	 0.000000	 0.360812
								CHANNELS 3 Zrotation Xrotation Yrotation
								JOINT LeftHandIndex1
								{
									OFFSET	 0.000000	 0.000000	 0.086006
									CHANNELS 3 Zrotation Xrotation Yrotation
									JOINT LeftHandIndex2
									{
										OFFSET	 0.000000	 0.000000	 0.047236
										CHANNELS 3 Zrotation Xrotation Yrotation
										JOINT LeftHandIndex3
										{
											OFFSET	-0.004284	-0.000551	 0.038166
											CHANNELS 3 Zrotation Xrotation Yrotation
											End Site
											{
												OFFSET	-0.004284	-0.000551	 0.038166
											}
										}
									}
								}
							}
						}
					}
				}
				JOINT Neck
				{
					OFFSET	 0.000000	 0.000000	 0.176489
					CHANNELS 3 Zrotation Xrotation Yrotation
					JOINT Head
					{
						OFFSET	 0.000000	-0.001747	 0.077940
						CHANNELS 3 Zrotation Xrotation Yrotation
						End Site
						{
							OFFSET	 0.000000	-0.001747	 0.077940
						}
					}
				}
				JOINT RightShoulder
				{
					OFFSET	-0.080363	 0.000306	 0.159706
					CHANNELS 3 Zrotation Xrotation Yrotation
					JOINT RightArm
					{
						OFFSET	 0.000000	 0.000000	 0.164196
						CHANNELS 3 Zrotation Xrotation Yrotation
						JOINT RightForeArm
						{
							OFFSET	 0.000000	 0.000000	 0.365611
							CHANNELS 3 Zrotation Xrotation Yrotation
							JOINT RightHand
							{
								OFFSET	 0.000000	 0.000000	 0.360648
								CHANNELS 3 Zrotation Xrotation Yrotation
								JOINT RightHandIndex1
								{
									OFFSET	 0.000000	 0.000000	 0.069977
									CHANNELS 3 Zrotation Xrotation Yrotation
									JOINT RightHandIndex2
									{
										OFFSET	 0.000000	 0.000000	 0.052305
										CHANNELS 3 Zrotation Xrotation Yrotation
										JOINT RightHandIndex3
										{
											OFFSET	 0.009002	-0.000782	 0.042196
											CHANNELS 3 Zrotation Xrotation Yrotation
											End Site
											{
												OFFSET	 0.009002	-0.000782	 0.042196
											}
										}
									}
								}
							}
						}
					}
				}
			}
		}
	}
}
MOTION
Frames:    8
Frame Time: 0.03333334
 0.000280	 0.045258	 1.272468	-0.041389	 3.270652	 0.774446	 1.630547	-8.221784	 178.079800	 2.199152	-16.353980	 0.736972	 0.206563	 72.636180	-0.275668	-2.385833	 28.452750	 0.000004	 5.706160	-7.413334	-178.869100	-0.724530	-14.144600	 1.082560	 6.081717	 71.296010	 0.169822	 2.384659	 28.388700	-0.000001	 2.526625	 7.993248	-0.387088	 1.478681	-9.219872	 0.321159	-3.742389	 13.183110	 1.000047	-90.994310	 68.607430	-177.442200	-5.547523	-0.767595	-6.574149	 24.650260	-5.539994	-20.967390	-6.455646	-9.440678	-4.417412	-2.027600	 6.559038	 9.033609	-5.188889	 0.308190	 3.541030	-5.234859	 0.342567	 0.430617	 4.695747	 20.949320	-7.680759	-8.804283	-15.282390	 1.648840	 88.761670	 66.960490	 176.882500	 10.524740	 6.334435	 14.477830	-28.066260	-3.976161	 10.553690	 3.339448	-8.880288	 5.537517	 1.803333	 3.979147	-15.098590	 4.898592	 3.004813	-9.310344	 5.224449	 0.395017	 2.014677
-0.000380	 0.049729	 1.269866	 0.062921	 4.513439	 0.878353	 1.166148	-10.772450	 177.930000	 2.229768	-18.383090	 0.839721	 0.457011	 73.472740	-0.559294	-2.385833	 28.452750	 0.000004	 5.792143	-9.892175	-178.931500	-0.681039	-16.077450	 1.238907	 6.448101	 71.990730	-0.214539	 2.384659	 28.388700	-0.000001	 2.399715	 8.737902	-0.368717	 1.436298	-12.799900	 0.253109	-3.641746	 17.180640	 1.271178	-90.832990	 67.493320	-177.133800	-4.657457	-1.683821	-7.308076	 23.762960	-5.715305	-22.920350	-4.668699	-11.252070	-5.159363	-2.027600	 6.559038	 9.033609	-5.188889	 0.308190	 3.541030	-5.234859	 0.342567	 0.430617	 4.761374	 24.356640	-8.661867	-8.183719	-17.466240	 1.557398	 88.450200	 64.807480	 176.378700	 10.426640	 5.110171	 15.681860	-27.800160	-4.595304	 12.317540	 1.063288	-9.716011	 5.041393	 1.803333	 3.979147	-15.098590	 4.898592	 3.004813	-9.310344	 5.224449	 0.395017	 2.014677
-0.001374	 0.058470	 1.266652	 0.260014	 6.749814	 1.059424	 0.439115	-14.702090	 177.635600	 2.235118	-20.581330	 0.932739	 0.809631	 74.193470	-0.890149	-2.385832	 28.452790	-0.000001	 5.746363	-13.631810	-178.955100	-1.176845	-17.991770	 1.217156	 7.341216	 72.524870	-0.572690	 2.384659	 28.388700	-0.000001	 2.103153	 9.143474	-0.367564	 1.231622	-17.598070	 0.257841	-3.400523	 21.864020	 1.414324	-90.903050	 65.453510	-177.629000	-3.205294	-2.357948	-6.667986	 20.953810	-5.228780	-26.308890	-4.112313	-13.315210	-6.913932	-2.027600	 6.559038	 9.033609	-5.188889	 0.308190	 3.541030	-5.234859	 0.342567	 0.430617	 4.208675	 26.611480	-8.828485	-7.149867	-18.799140	 1.256793	 88.439250	 61.757660	 176.786500	 8.751425	 3.553620	 15.827740	-26.367170	-5.177375	 14.915060	-1.705703	-10.464090	 5.285858	 1.803333	 3.979147	-15.098590	 4.898592	 3.004813	-9.310344	 5.224449	 0.395017	 2.014677
-0.001868	 0.071615	 1.261535	 0.684186	 9.728605	 1.078282	-0.632515	-19.884480	 177.393700	 2.150813	-23.203430	 1.012105	 1.260881	 74.552940	-1.244210	-2.385833	 28.452760	 0.000004	 5.583563	-18.762540	-178.738500	-1.445824	-20.747540	 1.312487	 8.498831	 73.247760	-1.504595	 2.384659	 28.388700	-0.000001	 1.422100	 8.235772	-0.275992	 0.869841	-22.047480	 0.247655	-2.784248	 25.351090	 1.503763	-91.872100	 64.832790	 179.747000	-1.761514	 0.285593	-2.330699	 19.398260	-5.316419	-30.646720	-3.747335	-14.347950	-8.535098	-2.027600	 6.559038	 9.033609	-5.188889	 0.308190	 3.541030	-5.234859	 0.342567	 0.430617	 3.501440	 26.594010	-8.797097	-5.750437	-18.840990	 1.127116	 89.348680	 60.700440	 179.000000	 5.426912	 5.013493	 12.413560	-25.078040	-5.883542	 18.085560	-4.006973	-11.229900	 5.538482	 1.803333	 3.979147	-15.098590	 4.898592	 3.004813	-9.310344	 5.224449	 0.395017	 2.014677
-0.003119	 0.090293	 1.255555	 1.381998	 13.709830	 1.014981	-2.143192	-26.522900	 176.913500	 2.534136	-25.933360	 1.291328	 0.879629	 74.718450	-1.142477	-2.385832	 28.452790	-0.000001	 5.335669	-25.203370	-178.358400	-1.416168	-23.416050	 1.484131	 9.057783	 73.503000	-2.060380	 2.384659	 28.388700	-0.000001	 0.470364	 6.477034	-0.016414	 0.076379	-24.712370	-0.151633	-1.761435	 26.907000	 1.451006	-93.004690	 65.205890	 176.704200	-0.445856	 5.268697	 2.447698	 19.202550	-6.214637	-35.300990	-2.691715	-14.798480	-9.143799	-2.027600	 6.559038	 9.033609	-5.188889	 0.308190	 3.541030	-5.234859	 0.342567	 0.430617	 2.920505	 24.858780	-8.838634	-4.152225	-18.068810	 0.938099	 90.532620	 60.363850	-178.287900	 1.686008	 8.231024	 8.699597	-23.254730	-6.299856	 21.451350	-5.095570	-12.023080	 5.865206	 1.803333	 3.979147	-15.098590	 4.898592	 3.004813	-9.310344	 5.224449	 0.395017	 2.014677
-0.005898	 0.115771	 1.250437	 3.083175	 19.082320	 0.809726	-5.092535	-34.499170	 175.654100	 3.572326	-27.374690	 1.836450	-1.095182	 72.604890	 0.060283	-2.385833	 28.452760	 0.000004	 4.133437	-32.952080	-178.060600	-1.342283	-25.015080	 1.610488	 8.446052	 71.851330	-1.470654	 2.384659	 28.388700	-0.000001	-0.837409	 4.410108	 0.255035	-1.502482	-25.852780	-0.724081	-0.594954	 26.497680	 0.623411	-93.938880	 65.662690	 174.069500	 2.410601	 11.642410	 5.323846	 18.920770	-7.034157	-39.633110	-1.699139	-14.808850	-9.564806	-2.027600	 6.559038	 9.033609	-5.188889	 0.308190	 3.541030	-5.234859	 0.342567	 0.430617	 2.446713	 24.064460	-7.739357	-2.605559	-18.245050	 0.485857	 91.679870	 61.030760	-175.574700	-2.233383	 12.971280	 6.786253	-21.995240	-6.523175	 23.954390	-5.888092	-12.188560	 6.419258	 1.803333	 3.979147	-15.098590	 4.898592	 3.004813	-9.310344	 5.224449	 0.395017	 2.014677
-0.009266	 0.140454	 1.242180	 4.274924	 22.509960	 0.335931	-7.510078	-40.497210	 174.470600	 4.092967	-29.399580	 2.217180	-2.303552	 72.900570	 0.846307	-2.385833	 28.452750	 0.000004	 3.508482	-39.322800	-177.639100	-1.653520	-28.175120	 1.650758	 9.475525	 72.459070	-2.342338	 2.384659	 28.388700	-0.000001	-1.909318	 5.619817	 0.662763	-2.841989	-25.343020	-0.966638	 0.989580	 26.042680	-0.491532	-94.479930	 67.271800	 171.904800	 6.459534	 18.565060	 2.499359	 19.022340	-7.639837	-41.613640	-0.974815	-15.368200	-9.843672	-2.027600	 6.559038	 9.033609	-5.188889	 0.308190	 3.541030	-5.234859	 0.342567	 0.430617	 1.842091	 23.165480	-6.433197	-1.006661	-18.782950	-0.017724	 92.528490	 62.089190	-173.351800	-5.129024	 18.522080	 9.113893	-21.311980	-6.616098	 25.363770	-5.593041	-12.662270	 7.183860	 1.803333	 3.979147	-15.098590	 4.898592	 3.004813	-9.310344	 5.224449	 0.395017	 2.014677
-0.012020	 0.162919	 1.231783	 3.795399	 24.634190	-0.032006	-7.698381	-45.038090	 174.100900	 4.229457	-32.520240	 2.501577	-3.026951	 73.849720	 1.604518	-2.385833	 28.452750	 0.000004	 5.074389	-44.288810	-176.368600	-2.108109	-32.297990	 1.624453	 12.234550	 73.803420	-4.907833	 2.384659	 28.388700	-0.000001	-2.604553	 9.555717	 1.167239	-3.068898	-22.673470	-0.251418	 3.039965	 25.050180	-1.551778	-94.501850	 70.141580	 169.957500	 10.545530	 22.781300	-4.286344	 18.712480	-7.978447	-43.918300	-1.133916	-17.050210	-10.025080	-2.027600	 6.559038	 9.033609	-5.188889	 0.308190	 3.541030	-5.234859	 0.342567	 0.430617	 1.139633	 21.633170	-5.983465	 0.775268	-19.192050	 0.067285	 93.045360	 64.085780	-171.432100	-7.598705	 23.935370	 15.293170	-20.220820	-6.649116	 27.443670	-3.662493	-14.245770	 8.375576	 1.803333	 3.979147	-15.098590	 4.898592	 3.004813	-9.310344	 5.224449	 0.395017	 2.014677
